<?xml version="1.0" encoding="UTF-8"?>
<!DOCTYPE svg PUBLIC "-//W3C//DTD SVG 1.1//EN" "http://www.w3.org/Graphics/SVG/1.1/DTD/svg11.dtd">
<!-- Creator: CorelDRAW 2021 (64-Bit) -->
<svg xmlns="http://www.w3.org/2000/svg" xml:space="preserve" width="192.605mm" height="192mm" version="1.1" style="shape-rendering:geometricPrecision; text-rendering:geometricPrecision; image-rendering:optimizeQuality; fill-rule:evenodd; clip-rule:evenodd"
viewBox="0 0 9990.44 9959.09"
 xmlns:xlink="http://www.w3.org/1999/xlink"
 xmlns:xodm="http://www.corel.com/coreldraw/odm/2003">
 <defs>
  <style type="text/css">
   <![CDATA[
    .fil1 {fill:#0A151F}
    .fil2 {fill:#33FF99}
    .fil0 {fill:white}
   ]]>
  </style>
 </defs>
 <g id="Capa_x0020_1">
  <metadata id="CorelCorpID_0Corel-Layer"/>
  <g id="_1487844578000">
   <path class="fil0" d="M7086.89 1117.04c1476.72,-84.93 1784.82,877.37 1787.94,2108.11 3.26,1287.82 -26.74,2600.56 3.55,3884.71 30.18,1279.03 -896.84,1787.52 -2054.23,1785.85 -1294.72,-1.86 -2588.91,0.13 -3883.54,-0.06 -1404.51,-0.2 -1809.52,-833.81 -1801.22,-2067.41 8.69,-1292.83 3.29,-2591.22 -0.41,-3884.36 -4.32,-1512.06 742.42,-1816.54 2082.47,-1818.35 1241.85,-1.67 2643.86,61.77 3865.45,-8.49zm-5005.47 -1062.62c-291.75,22.83 -1197.03,634.6 -1444.55,990.23 -430.78,618.94 -617.7,1073.46 -614.06,1863.83 3.78,821.09 -93.32,4381.9 86.56,4887.27 484.93,1362.3 1271.33,2138.3 2830.85,2124.93 1103.25,-9.46 4000.77,138.07 4884.2,-89.28 1366.95,-351.8 2153.13,-1394.03 2145.51,-2810.27 -4.19,-778.28 86.55,-4436.13 -83.32,-4890.35 -269.29,-720.09 -328.54,-999.25 -962.33,-1515.56 -703.01,-572.69 -989.19,-570.99 -1871.74,-571 -1535.32,-0.01 -3486.65,-105.97 -4971.12,10.2z"/>
   <path class="fil1" d="M1980.77 5305.41c-222.12,-1590.2 1118.89,-3205.9 2696.62,-3330.31 1610.15,-126.97 3285.09,1037.3 3312.51,2707.51 70.48,4293.14 -5491.46,4328.75 -6009.13,622.8zm5106.12 -4188.37c-1221.59,70.26 -2623.6,6.82 -3865.45,8.49 -1340.05,1.81 -2086.79,306.29 -2082.47,1818.35 3.7,1293.14 9.1,2591.53 0.41,3884.36 -8.29,1233.6 396.72,2067.21 1801.22,2067.41 1294.63,0.19 2588.83,-1.8 3883.54,0.06 1157.39,1.67 2084.4,-506.82 2054.23,-1785.85 -30.29,-1284.15 -0.3,-2596.88 -3.55,-3884.71 -3.11,-1230.74 -311.22,-2193.04 -1787.94,-2108.11z"/>
   <path class="fil2" d="M7028.33 5188.37c-554.9,3010.66 -4317.18,1996.04 -4113.36,-361.14 91.72,-1060.66 1113.1,-2015.84 2232.72,-1912.49 1133.14,104.6 2092.97,1121.58 1880.64,2273.63zm-5047.55 117.05c517.66,3705.95 6079.61,3670.34 6009.13,-622.8 -27.42,-1670.21 -1702.36,-2834.48 -3312.51,-2707.51 -1577.73,124.41 -2918.74,1740.11 -2696.62,3330.31z"/>
   <path class="fil1" d="M4773.42 3509.8c645.6,-62.84 934.09,666.42 346.64,928.5 -284.19,126.78 -519.27,27.7 -562.06,409.4 -26.21,233.86 -170.7,478.97 -397.78,564.29 -902.86,339.22 -842.42,-1760.51 613.2,-1902.2zm2254.91 1678.56c212.34,-1152.05 -747.5,-2169.03 -1880.64,-2273.63 -1119.62,-103.35 -2141,851.83 -2232.72,1912.49 -203.83,2357.18 3558.45,3371.79 4113.36,361.14z"/>
   <path class="fil0" d="M4773.42 3509.8c-1455.62,141.69 -1516.06,2241.41 -613.2,1902.2 227.08,-85.32 371.57,-330.43 397.78,-564.29 42.79,-381.7 277.87,-282.62 562.06,-409.4 587.46,-262.08 298.96,-991.34 -346.64,-928.5z"/>
  </g>
 </g>
</svg>
