<?xml version="1.0" encoding="UTF-8"?>
<!DOCTYPE svg PUBLIC "-//W3C//DTD SVG 1.1//EN" "http://www.w3.org/Graphics/SVG/1.1/DTD/svg11.dtd">
<!-- Creator: CorelDRAW 2021 (64-Bit) -->
<svg xmlns="http://www.w3.org/2000/svg" xml:space="preserve" width="79.9996mm" height="79.7484mm" version="1.1" style="shape-rendering:geometricPrecision; text-rendering:geometricPrecision; image-rendering:optimizeQuality; fill-rule:evenodd; clip-rule:evenodd"
viewBox="0 0 77863.79 77619.29"
 xmlns:xlink="http://www.w3.org/1999/xlink"
 xmlns:xodm="http://www.corel.com/coreldraw/odm/2003">
 <defs>
  <style type="text/css">
   <![CDATA[
    .fil1 {fill:#0A151F}
    .fil2 {fill:#33FF99}
    .fil0 {fill:white}
   ]]>
  </style>
 </defs>
 <g id="Capa_x0020_1">
  <metadata id="CorelCorpID_0Corel-Layer"/>
  <g id="_1487839691232">
   <path class="fil0" d="M55234.02 8705.99c11509.2,-661.94 13910.53,6838.03 13934.86,16430.22 25.4,10037.08 -208.38,20268.34 27.64,30276.71 235.25,9968.56 -6989.77,13931.56 -16010.24,13918.61 -10090.81,-14.5 -20177.53,1.07 -30267.65,-0.39 -10946.44,-1.56 -14103.05,-6498.64 -14038.42,-16113.12 67.74,-10076.01 25.6,-20195.44 -3.21,-30273.98 -33.68,-11784.74 5786.38,-14157.85 16230.4,-14171.86 9678.81,-13.04 20605.78,481.4 30126.62,-66.18zm-39011.7 -8281.83c-2273.83,177.92 -9329.49,4945.93 -11258.58,7717.7 -3357.41,4823.88 -4814.24,8366.31 -4785.82,14526.34 29.39,6399.36 -727.35,34151.71 674.69,38090.47 3779.43,10617.56 9908.51,16665.46 22063.11,16561.32 8598.54,-73.68 31181.29,1076.08 38066.53,-695.91 10653.77,-2741.89 16781.19,-10864.78 16721.72,-21902.71 -32.7,-6065.72 674.5,-34574.32 -649.39,-38114.51 -2098.83,-5612.26 -2560.56,-7787.97 -7500.27,-11812 -5479.11,-4463.47 -7709.53,-4450.23 -14588.05,-4450.23 -11965.97,0 -27174.31,-825.94 -38743.95,79.52z"/>
   <path class="fil1" d="M15437.84 41349.38c-1731.21,-12393.64 8720.4,-24986.13 21016.9,-25955.83 12549.27,-989.56 25603.4,8084.54 25817.13,21101.87 549.33,33459.99 -42799.41,33737.48 -46834.04,4853.96zm39796.19 -32643.39c-9520.84,547.58 -20447.81,53.14 -30126.62,66.18 -10444.02,14.02 -16264.07,2387.12 -16230.4,14171.86 28.81,10078.54 70.95,20197.97 3.21,30273.98 -64.63,9614.47 3091.99,16111.56 14038.42,16113.12 10090.13,1.46 20176.85,-14.11 30267.65,0.39 9020.47,12.94 16245.48,-3950.05 16010.24,-13918.61 -236.03,-10008.37 -2.24,-20239.62 -27.64,-30276.71 -24.33,-9592.19 -2425.66,-17092.16 -13934.86,-16430.22z"/>
   <path class="fil2" d="M54777.54 40437.2c-4324.77,23464.47 -33647.35,15556.78 -32058.72,-2814.6 714.79,-8266.64 8675.24,-15711.14 17401.38,-14905.64 8831.45,815.24 16312.25,8741.32 14657.35,17720.23zm-39339.71 912.18c4034.63,28883.52 47383.37,28606.03 46834.04,-4853.96 -213.74,-13017.33 -13267.86,-22091.43 -25817.13,-21101.87 -12296.51,969.7 -22748.12,13562.19 -21016.9,25955.83z"/>
   <path class="fil1" d="M37203.21 27354.76c5031.68,-489.77 7280.2,5194.03 2701.59,7236.6 -2214.94,988.1 -4047.09,215.88 -4380.54,3190.78 -204.3,1822.7 -1330.41,3733 -3100.26,4397.96 -7036.68,2643.88 -6565.7,-13721.03 4779.21,-14825.34zm17574.33 13082.45c1654.91,-8978.91 -5825.89,-16904.99 -14657.35,-17720.23 -8726.14,-805.5 -16686.58,6638.99 -17401.38,14905.64 -1588.62,18371.37 27733.95,26279.06 32058.72,2814.6z"/>
   <path class="fil0" d="M37203.21 27354.76c-11344.91,1104.31 -11815.89,17469.22 -4779.21,14825.34 1769.85,-664.96 2895.96,-2575.26 3100.26,-4397.96 333.45,-2974.9 2165.6,-2202.68 4380.54,-3190.78 4578.61,-2042.57 2330.09,-7726.36 -2701.59,-7236.6z"/>
  </g>
 </g>
</svg>
