<?xml version="1.0" encoding="UTF-8"?>
<!DOCTYPE svg PUBLIC "-//W3C//DTD SVG 1.1//EN" "http://www.w3.org/Graphics/SVG/1.1/DTD/svg11.dtd">
<!-- Creator: CorelDRAW 2021 (64-Bit) -->
<svg xmlns="http://www.w3.org/2000/svg" xml:space="preserve" width="41mm" height="12mm" version="1.1" style="shape-rendering:geometricPrecision; text-rendering:geometricPrecision; image-rendering:optimizeQuality; fill-rule:evenodd; clip-rule:evenodd"
viewBox="0 0 4100 1200"
 xmlns:xlink="http://www.w3.org/1999/xlink"
 xmlns:xodm="http://www.corel.com/coreldraw/odm/2003">
 <defs>
  <style type="text/css">
   <![CDATA[
    .fil0 {fill:#F61717}
   ]]>
  </style>
 </defs>
 <g id="Capa_x0020_1">
  <metadata id="CorelCorpID_0Corel-Layer"/>
  <g id="_2858035748848">
   <path class="fil0" d="M3485.81 575.97c6.24,-71.04 50.54,-176.28 98.25,-193.45 21.33,58.26 -72.12,168.42 -98.25,193.45zm-275.02 -164.52c-16.04,57.59 -36.38,155.23 -57.56,206.16 -15.52,37.32 -89.21,147.03 -143.96,89.26 -58.38,-61.61 65.24,-320.46 201.52,-295.42zm21.25 291.03l60.1 -312 -16.28 -3.33c-37.83,-58.54 -145.31,-44.87 -209.04,-1.78 -57.17,38.64 -100.09,84.25 -133.16,163.3 -87.07,208.15 64.57,324.91 227.48,168.14 13.72,39.82 14.38,59 34.24,71.13l199.55 -63.41 29.19 58.1c48.13,12.12 225.62,9.84 205.13,-100.46l-152.86 28.64c-10.39,-55.94 113.56,-131.8 154.85,-207.54 59.97,-110 30.36,-255.38 -88.73,-172.48 -162.15,112.89 -96.24,304.23 -187.76,335.47 -57.99,19.8 11.25,-22.64 -55.67,4.74 -28.56,11.69 -27.79,21.23 -67.04,31.48z"/>
   <path class="fil0" d="M396.04 735.73c-72.59,-68.44 80.61,-428.91 -61.82,-344.08 -42.81,25.49 -57.86,332.46 -154.55,326.98 -73.28,-79.99 50.78,-260.45 25.99,-344.79 -114.13,-30.69 -133.96,199.97 -122.74,298.51 21.05,184.77 170.13,157.04 216.59,10.91 21.67,58.04 13.51,108.55 82.51,114.52 55.79,4.83 108.33,-41.43 120.42,-77.09 82.41,41.94 139.66,26.68 125.15,-95.23l-66.86 63.17c-33.05,-38.39 9.28,-148.79 17.46,-202.59 8.07,-53.15 -4.98,-201.06 -67.79,-105.76 -36.4,55.21 -10.7,340.6 -114.36,355.45z"/>
   <path class="fil0" d="M2141.43 445.08l127.9 -60.65 16.46 13.8 -38.23 154.62c-19.98,5.44 -77.02,-11.53 -100.19,-16.29l-13.95 19.73 78.61 65.12 -38.73 159.63 17.42 4.26c77.93,34.59 86.11,-128.43 123.74,-169.93l93.73 -11.45c-7.02,75.1 -41.34,191.48 69.09,186.27 85.31,-4.02 154.4,-66.49 111.72,-140.55l-95.13 68.73 -15.89 -12.08 12.17 -105.79 98.58 -28.57 -3.71 -25.53 -72.53 -13.02 52.71 -176.36c-134.63,-37.15 -86.13,155.58 -143.84,181.98l-91.47 10.23c14.58,-76.78 59.62,-190.57 -27.58,-220.87 -70.6,-24.53 -188.82,28.1 -160.88,116.72z"/>
   <path class="fil0" d="M990.81 413.22c-21.69,62.16 -33.69,140.21 -57.47,202.91 -14.17,37.37 -88.78,147.43 -143.88,91.99 -63.2,-63.61 77.28,-331.61 201.35,-294.9zm21.22 288.93c-0.44,-80.58 101.38,-273.25 32.26,-326.28 -89.19,-68.43 -218.26,6.56 -263.77,63.43 -187.26,234.01 -41.47,488.34 157.64,277.16l33.86 61.06c40.18,18.62 187.71,-24.95 132.74,-120.43l-92.73 45.06z"/>
   <path class="fil0" d="M2046.21 624.49c-81.08,28.18 -178.99,141.51 -274.42,116.06 -112.18,-29.93 -24.46,-227.89 15.13,-279.11 129.77,-167.88 205.54,52.37 49.57,64.66 -134.61,10.61 45.49,170.46 139.36,-19.74 106.05,-214.9 -252.45,-275.08 -335.66,82.16 -29.32,125.84 22.81,229.35 141.72,233.29 156.8,5.2 185.75,-98.65 266.1,-126.92l-1.8 -70.4z"/>
   <path class="fil0" d="M3819.27 576.86c6.11,-75.52 46.95,-171.54 97.98,-194.72 24.38,55.88 -73.47,172.37 -97.98,194.72zm145.43 112.69c-64.42,-21.76 -138.22,53.41 -152.92,2.38 -9.69,-33.63 73.43,-77 90.96,-97.94 29.07,-34.76 148.38,-197.46 75.61,-267.6 -79.66,-76.79 -186.35,94.34 -207.52,150.68 -15.41,41.01 -26.66,126.22 -38.64,150.77 -26.26,53.8 -94.96,26.13 -64.53,118.86l59.82 -22.73 34.21 56.03c60.02,20.65 225.58,-3.03 203.01,-90.45z"/>
   <path class="fil0" d="M1204.11 480.43c122.71,34.71 19.98,-58.76 170.64,-67.51 -18.17,85.83 -121,294.37 -95.31,372.04 81.78,21.81 85.24,-71.22 106.33,-148.73 19.83,-72.86 35.52,-142.21 52.82,-219.79 46.12,-10.19 158.48,28.45 189.25,-1.65 63.26,-61.89 -105.17,-65.62 -138.67,-67.76 -110.7,-7.06 -342.45,-8.62 -285.06,133.4z"/>
  </g>
 </g>
</svg>
