<?xml version="1.0" encoding="UTF-8"?>
<!DOCTYPE svg PUBLIC "-//W3C//DTD SVG 1.1//EN" "http://www.w3.org/Graphics/SVG/1.1/DTD/svg11.dtd">
<!-- Creator: CorelDRAW 2021 (64-Bit) -->
<svg xmlns="http://www.w3.org/2000/svg" xml:space="preserve" width="100mm" height="98.8504mm" version="1.1" style="shape-rendering:geometricPrecision; text-rendering:geometricPrecision; image-rendering:optimizeQuality; fill-rule:evenodd; clip-rule:evenodd"
viewBox="0 0 9491.45 9382.33"
 xmlns:xlink="http://www.w3.org/1999/xlink"
 xmlns:xodm="http://www.corel.com/coreldraw/odm/2003">
 <defs>
  <style type="text/css">
   <![CDATA[
    .fil0 {fill:#33FF99}
    .fil1 {fill:white}
   ]]>
  </style>
 </defs>
 <g id="Capa_x0020_1">
  <metadata id="CorelCorpID_0Corel-Layer"/>
  <g id="_2533161766784">
   <path class="fil0" d="M4495.33 15.68c-786.96,70.27 -1247.2,177.91 -1873.28,481.49 -1563.51,758.14 -2729.06,2471.5 -2614.25,4461.48 145.18,2516.45 2277.73,4539.48 5004.34,4418.52 2546.01,-112.95 4604.48,-2294.49 4473.37,-4948.36 -68.68,-1390.22 -801.53,-2555.23 -1521.54,-3183.12 -922.09,-804.14 -2166.79,-1346.28 -3468.64,-1230.02z"/>
   <path class="fil1" d="M3403.98 2356.07l0.06 4901.61 1018.25 -608.67c653.87,-409.07 1445.03,-860.12 2053.19,-1262.3 184.19,-121.81 916.58,-536.72 1018.79,-635.45 -84.19,-81.38 -3200.13,-1966.05 -3575.16,-2201.48 -108.29,-67.98 -415.15,-276.44 -514.92,-305.32l-0.21 111.61z"/>
  </g>
 </g>
</svg>
