<?xml version="1.0" encoding="UTF-8"?>
<!DOCTYPE svg PUBLIC "-//W3C//DTD SVG 1.1//EN" "http://www.w3.org/Graphics/SVG/1.1/DTD/svg11.dtd">
<!-- Creator: CorelDRAW 2021 (64-Bit) -->
<svg xmlns="http://www.w3.org/2000/svg" xml:space="preserve" width="60mm" height="12mm" version="1.1" style="shape-rendering:geometricPrecision; text-rendering:geometricPrecision; image-rendering:optimizeQuality; fill-rule:evenodd; clip-rule:evenodd"
viewBox="0 0 6000 1200"
 xmlns:xlink="http://www.w3.org/1999/xlink"
 xmlns:xodm="http://www.corel.com/coreldraw/odm/2003">
 <defs>
  <style type="text/css">
   <![CDATA[
    .fil0 {fill:#F61717}
   ]]>
  </style>
 </defs>
 <g id="Capa_x0020_1">
  <metadata id="CorelCorpID_0Corel-Layer"/>
  <g id="_1951004764800">
   <g id="_2858035748848">
    <path class="fil0" d="M5182.54 575.87c9.42,-120.41 76.29,-298.79 148.29,-327.9 32.2,98.75 -108.85,285.47 -148.29,327.9zm-415.09 -278.86c-24.21,97.61 -54.91,263.11 -86.88,349.44 -23.42,63.26 -134.64,249.22 -217.28,151.3 -88.11,-104.43 98.47,-543.18 304.16,-500.74zm32.07 493.29l90.71 -528.83 -24.57 -5.65c-57.1,-99.22 -219.32,-76.05 -315.51,-3.02 -86.28,65.5 -151.06,142.81 -200.98,276.8 -131.41,352.81 97.46,550.72 343.34,284.99 20.71,67.5 21.71,100.01 51.68,120.57l301.19 -107.48 44.05 98.48c72.65,20.54 340.54,16.68 309.61,-170.28l-230.71 48.54c-15.69,-94.81 171.39,-223.4 233.71,-351.78 90.52,-186.45 45.83,-432.86 -133.92,-292.35 -244.73,191.35 -145.25,515.67 -283.39,568.62 -87.52,33.56 16.98,-38.37 -84.02,8.04 -43.11,19.81 -41.95,35.98 -101.19,53.35z"/>
    <path class="fil0" d="M519.09 846.66c-109.56,-116 121.67,-727 -93.31,-583.21 -64.61,43.2 -87.33,563.52 -233.26,554.23 -110.61,-135.58 76.64,-441.46 39.22,-584.42 -172.25,-52.02 -202.18,338.95 -185.25,505.97 31.77,313.19 256.78,266.19 326.9,18.5 32.71,98.37 20.4,183.99 124.54,194.11 84.2,8.18 163.5,-70.23 181.75,-130.67 124.38,71.09 210.79,45.22 188.89,-161.41l-100.91 107.07c-49.88,-65.07 14.01,-252.2 26.35,-343.39 12.18,-90.09 -7.51,-340.8 -102.31,-179.26 -54.94,93.58 -16.15,577.31 -172.61,602.48z"/>
    <path class="fil0" d="M3153.44 354.01l193.05 -102.8 24.84 23.39 -57.7 262.08c-30.16,9.22 -116.25,-19.54 -151.22,-27.61l-21.06 33.44 118.65 110.38 -58.45 270.57 26.29 7.22c117.62,58.63 129.97,-217.68 186.76,-288.03l141.47 -19.4c-10.6,127.29 -62.4,324.55 104.28,315.72 128.76,-6.81 233.04,-112.7 168.62,-238.23l-143.58 116.5 -23.98 -20.48 18.36 -179.31 148.79 -48.43 -5.6 -43.27 -109.47 -22.07 79.56 -298.93c-203.2,-62.97 -130,263.71 -217.1,308.46l-138.06 17.34c22.01,-130.15 89.99,-323.02 -41.63,-374.38 -106.56,-41.58 -284.99,47.63 -242.82,197.84z"/>
    <path class="fil0" d="M1416.79 300.01c-32.74,105.36 -50.85,237.66 -86.74,343.93 -21.39,63.34 -134,249.89 -217.16,155.92 -95.39,-107.81 116.64,-562.07 303.9,-499.85zm32.03 489.73c-0.67,-136.58 153.01,-463.15 48.69,-553.04 -134.62,-115.99 -329.43,11.12 -398.12,107.52 -282.63,396.64 -62.59,827.73 237.93,469.78l51.11 103.5c60.64,31.56 283.31,-42.29 200.35,-204.13l-139.96 76.37z"/>
    <path class="fil0" d="M3009.73 658.11c-122.38,47.77 -270.16,239.86 -414.19,196.72 -169.32,-50.73 -36.92,-386.27 22.83,-473.09 195.87,-284.55 310.23,88.77 74.82,109.6 -203.17,17.98 68.66,288.93 210.34,-33.46 160.06,-364.25 -381.03,-466.26 -506.62,139.26 -44.25,213.3 34.43,388.75 213.9,395.43 236.66,8.81 280.36,-167.21 401.63,-215.13l-2.71 -119.33z"/>
    <path class="fil0" d="M5685.84 577.38c9.22,-128.01 70.86,-290.76 147.89,-330.05 36.79,94.72 -110.89,292.17 -147.89,330.05zm219.5 191.01c-97.23,-36.89 -208.62,90.53 -230.8,4.03 -14.63,-57 110.83,-130.51 137.29,-166.01 43.87,-58.91 223.95,-334.69 114.12,-453.58 -120.24,-130.16 -281.27,159.91 -313.22,255.41 -23.26,69.51 -40.24,213.94 -58.32,255.55 -39.63,91.19 -143.32,44.29 -97.4,201.47l90.29 -38.53 51.64 94.97c90.59,35 340.47,-5.14 306.4,-153.31z"/>
    <path class="fil0" d="M1738.73 413.93c185.21,58.83 30.15,-99.6 257.55,-114.43 -27.43,145.48 -182.63,498.96 -143.86,630.61 123.44,36.97 128.66,-120.72 160.49,-252.1 29.93,-123.5 53.61,-241.04 79.72,-372.54 69.61,-17.27 239.2,48.22 285.64,-2.8 95.48,-104.9 -158.73,-111.22 -209.3,-114.85 -167.08,-11.97 -516.86,-14.61 -430.24,226.11z"/>
   </g>
  </g>
 </g>
</svg>
